<svg version="1.2" fill="#currentColor" xmlns="http://www.w3.org/2000/svg" viewBox="0 0 600 150" width="600" height="150"><path d="M206.1 95h-33.4V42.6h10.8v43.5h22.6zm17.9 0h-10.5V55.7H224zm-5.2-44.4q-2.4 0-4.2-1.6-1.6-1.6-1.6-3.9 0-2.2 1.6-3.8 1.8-1.6 4.2-1.6t4 1.6q1.8 1.6 1.8 3.8 0 2.3-1.8 3.9-1.6 1.6-4 1.6M255.6 95h-12l-14.5-39.3h11.2l6.6 20.4q1.2 3.8 2.1 7.7t1.9 8.1h-2.3q.9-4.2 1.8-8.1t2.1-7.7l6.5-20.4h11.1zm36.7.8q-6.1 0-10.4-2.5-4.4-2.5-6.7-7t-2.3-10.8q0-6 2.3-10.6t6.5-7.1q4.3-2.6 10-2.6 3.9 0 7.2 1.2 3.4 1.2 5.9 3.7t3.9 6.2q1.5 3.8 1.5 8.8v3h-33v-6.7H305l-4.9 1.8q0-3-1-5.3-.9-2.3-2.7-3.5-1.9-1.3-4.6-1.3t-4.6 1.3-2.9 3.4q-1 2.2-1 5v4.6q0 3.4 1.1 5.8 1.2 2.3 3.2 3.5 2.1 1.1 4.8 1.1 1.9 0 3.4-.5t2.6-1.6q1.1-1 1.6-2.5l9.6 1.8q-1 3.2-3.4 5.7-2.3 2.4-5.8 3.7-3.6 1.4-8.1 1.4m36.1-.8h-10.7V42.6h16.5l8.5 24.1q.5 1.6 1.2 4.3t1.4 5.8 1.3 6 1 5.1h-2.1q.5-2.2 1-5l1.4-6q.7-3.2 1.3-5.9.7-2.7 1.3-4.3l8.3-24.1h16.6V95h-10.8V66.1q.1-2.6.1-5.6.2-3 .2-6 .1-3 .1-5.7h.7q-.7 2.9-1.5 6.1-.8 3.1-1.6 6t-1.6 5.4q-.7 2.4-1.3 4L351.1 95H342l-8.8-24.7q-.5-1.6-1.3-4-.7-2.4-1.5-5.3-.9-2.9-1.7-6.1-.8-3.1-1.6-6.1h.9v5.6q.1 2.9.2 6 .1 2.9.1 5.5.1 2.6.1 4.4zm67.1.7q-3.8 0-6.7-1.2-3-1.4-4.7-4t-1.7-6.5q0-3.3 1.2-5.5t3.3-3.6q2.1-1.3 4.7-2 2.7-.7 5.6-1 3.4-.3 5.5-.6t3.1-1q1-.6 1-1.9v-.2q0-1.6-.8-2.8-.7-1.2-2.1-1.8-1.3-.6-3.3-.6t-3.6.6q-1.5.6-2.4 1.6-1 1.1-1.4 2.3l-9.7-1.6q1-3.4 3.4-5.8 2.3-2.4 5.8-3.6 3.5-1.3 7.9-1.3 3.2 0 6.2.8 3 .7 5.3 2.3 2.4 1.6 3.8 4.1t1.4 6.1V95h-10v-5.5h-.3q-1 1.9-2.6 3.3t-3.8 2.2q-2.2.7-5.1.7m2.9-7.3q2.5 0 4.4-1t3-2.7q1-1.7 1-3.8v-4.2q-.4.3-1.4.6-.9.3-2.1.5-1.1.2-2.3.4-1.1.2-2 .3-1.9.2-3.4.9-1.5.6-2.3 1.7-.8 1-.8 2.6 0 1.5.8 2.6.7 1 2.1 1.6 1.3.5 3 .5M437 95h-10.5V55.7h10.2v6.8h.4q1.1-3.6 3.6-5.4 2.6-1.9 5.9-1.9.8 0 1.7.1 1 0 1.7.2v9.4q-.7-.2-2.1-.4-1.3-.1-2.4-.1-2.5 0-4.4 1.1-1.9 1-3 2.8-1.1 1.9-1.1 4.3zm36.2-19.6-7.1 8.1V70.8h1.6l12.8-15.1h12.2l-17 19.7zM467 95h-10.5V42.6H467zm26.4 0H481l-11.8-17.2 7.1-7.5zm18.5.5q-4 0-7.1-1.8-3-1.7-4.7-5-1.7-3.4-1.7-8v-25H509v23.2q0 3.6 1.8 5.7 1.9 2.1 5.3 2.1 2.2 0 3.9-1 1.7-.9 2.7-2.8t1-4.4V55.7h10.6V95h-10l-.2-9.8h.7q-1.6 5-4.8 7.6-3.1 2.7-8.1 2.7m42.1 14.2h-10.6v-54h10.4v6.6h.5q.7-1.5 2.1-3.2 1.3-1.6 3.5-2.8 2.3-1.1 5.6-1.1 4.4 0 7.9 2.3 3.7 2.2 5.8 6.7 2.2 4.5 2.2 11.2 0 6.6-2.1 11.1t-5.7 6.9q-3.6 2.3-8.2 2.3-3.2 0-5.4-1.1t-3.6-2.7-2.1-3.2h-.3zm8.2-22.5q2.7 0 4.6-1.5t2.8-4.1q1-2.7 1-6.2 0-3.4-1-6.1-.9-2.6-2.8-4.1-1.8-1.5-4.6-1.5-2.7 0-4.6 1.4-1.9 1.5-2.9 4.1t-1 6.2 1 6.2q1 2.7 2.9 4.2 1.9 1.4 4.6 1.4M53.4 108.5 30.9 74.7 53.4 41l-8.9-6L18 74.7l26.5 39.7zM92.2 41l22.5 33.8-22.5 33.7 9 6 26.4-39.7-26.4-39.7zM57.5 56.2l9.6-4.8L88 93.2l-9.6 4.9z"/></svg>